HIERARCHY
ROOT joint_0
{
	OFFSET 0.000000 0.000000 0.000000
	CHANNELS 6 Xposition Yposition Zposition Zrotation Yrotation Xrotation 
	JOINT joint_1
	{
		OFFSET 0.511002 1.944000 108.288940
		CHANNELS 3 Zrotation Yrotation Xrotation
		JOINT joint_2
		{
			OFFSET -9.074005 1.512993 98.440063
			CHANNELS 3 Zrotation Yrotation Xrotation
			JOINT joint_3
			{
				OFFSET -8.590996 1.815002 98.366943
				CHANNELS 3 Zrotation Yrotation Xrotation
				JOINT joint_4
				{
					OFFSET 2.489998 3.531998 136.462036
					CHANNELS 3 Zrotation Yrotation Xrotation
					JOINT joint_5
					{
						OFFSET 22.708000 2.955002 80.357056
						CHANNELS 3 Zrotation Yrotation Xrotation
						End Site
						{
							OFFSET 0.000000 0.000000 0.000000
						}
					}
				}
				JOINT joint_6
				{
					OFFSET 2.860001 -27.684998 77.234009
					CHANNELS 3 Zrotation Yrotation Xrotation
					JOINT joint_7
					{
						OFFSET 5.449997 -131.244003 -18.851929
						CHANNELS 3 Zrotation Yrotation Xrotation
						JOINT joint_8
						{
							OFFSET 35.757000 -24.661995 -264.074097
							CHANNELS 3 Zrotation Yrotation Xrotation
							JOINT joint_9
							{
								OFFSET 49.392001 -1.747002 -239.960938
								CHANNELS 3 Zrotation Yrotation Xrotation
								End Site
								{
									OFFSET 0.000000 0.000000 0.000000
								}
							}
						}
					}
				}
				JOINT joint_10
				{
					OFFSET -0.127998 31.625000 75.753052
					CHANNELS 3 Zrotation Yrotation Xrotation
					JOINT joint_11
					{
						OFFSET -5.618004 131.132996 -19.557007
						CHANNELS 3 Zrotation Yrotation Xrotation
						JOINT joint_12
						{
							OFFSET 46.488998 30.127991 -261.826050
							CHANNELS 3 Zrotation Yrotation Xrotation
							JOINT joint_13
							{
								OFFSET 66.021003 0.474030 -235.934937
								CHANNELS 3 Zrotation Yrotation Xrotation
								End Site
								{
									OFFSET 0.000000 0.000000 0.000000
								}
							}
						}
					}
				}
			}
		}
	}
	JOINT joint_14
	{
		OFFSET 15.887001 -78.871004 -94.561035
		CHANNELS 3 Zrotation Yrotation Xrotation
		JOINT joint_15
		{
			OFFSET -4.133003 6.714001 -473.615967
			CHANNELS 3 Zrotation Yrotation Xrotation
			JOINT joint_16
			{
				OFFSET -19.541000 5.340000 -399.613007
				CHANNELS 3 Zrotation Yrotation Xrotation
				JOINT joint_17
				{
					OFFSET 164.317001 41.657999 -73.195000
					CHANNELS 3 Zrotation Yrotation Xrotation
					End Site
					{
						OFFSET 0.000000 0.000000 0.000000
					}
				}
			}
		}
	}
	JOINT joint_18
	{
		OFFSET 6.513000 77.960991 -96.406982
		CHANNELS 3 Zrotation Yrotation Xrotation
		JOINT joint_19
		{
			OFFSET -10.660004 -8.518997 -473.485016
			CHANNELS 3 Zrotation Yrotation Xrotation
			JOINT joint_20
			{
				OFFSET -36.967995 -11.098999 -398.260010
				CHANNELS 3 Zrotation Yrotation Xrotation
				JOINT joint_21
				{
					OFFSET 166.067997 30.363998 -74.785000
					CHANNELS 3 Zrotation Yrotation Xrotation
					End Site
					{
						OFFSET 0.000000 0.000000 0.000000
					}
				}
			}
		}
	}
}
MOTION
Frames: 13
Frame Time: 0.016667
-2281.729736 863.615601 1006.015991 -3.224045 8.982257 3.048986 -3.596024 4.120682 1.404537 -1.751703 -0.681177 -0.143583 -1.519499 0.791564 0.256732 0.432377 -9.766782 0.465548 0.000000 0.000000 0.000000 -0.097959 -4.353193 -1.224483 -8.499768 -4.175815 -9.495591 6.503646 -80.397245 37.055235 0.000000 0.000000 0.000000 -6.266802 15.183975 1.674316 13.588655 13.341951 3.214016 5.612054 -76.547940 1.761108 0.000000 0.000000 0.000000 5.442858 -29.139716 -17.505775 -1.355207 33.779989 -0.299186 -5.065681 -14.851127 2.030067 0.000000 0.000000 0.000000 -1.140723 -18.283542 22.983450 -3.293959 61.535875 -21.555857 -5.059793 11.283548 -2.809109 0.000000 0.000000 0.000000 
-2262.057373 860.074768 1004.002991 -1.866270 9.386977 2.934030 -3.800738 4.894386 1.553970 -1.615223 -0.822047 -0.179430 -1.381427 0.931256 0.291619 0.439307 -9.974960 0.476196 0.000000 0.000000 0.000000 -0.190171 -5.402359 -1.030708 -9.390532 -4.793711 -9.372874 6.146628 -79.697922 39.800903 0.000000 0.000000 0.000000 -6.490858 15.077477 1.635894 13.704568 12.886566 3.698855 5.614332 -78.752876 2.086810 0.000000 0.000000 0.000000 4.902231 -28.714590 -17.131401 -1.902853 35.365092 -0.622052 -5.988195 -16.531543 2.139774 0.000000 0.000000 0.000000 -0.226755 -21.798116 24.309888 -3.252711 63.210107 -20.269396 -2.324602 8.949973 0.009348 0.000000 0.000000 0.000000 
-2241.840820 857.642578 1003.796997 -0.272784 9.780990 2.889803 -3.915250 5.458534 1.751379 -1.452160 -0.921757 -0.246649 -1.201451 1.055172 0.343984 0.413870 -10.019011 0.548090 0.000000 0.000000 0.000000 -0.411605 -6.177677 -0.946128 -10.240407 -5.212311 -9.218929 5.714780 -78.541132 42.586756 0.000000 0.000000 0.000000 -6.788737 15.047543 1.596435 13.818006 12.427588 4.459074 5.446288 -81.153871 1.581900 0.000000 0.000000 0.000000 4.056130 -27.775689 -16.633345 -2.514112 35.973081 -1.165918 -6.782449 -17.928749 2.207055 0.000000 0.000000 0.000000 0.674935 -25.241292 25.146386 -3.033755 63.063250 -18.676262 1.212472 6.693664 2.257050 0.000000 0.000000 0.000000 
-2220.691162 856.627380 1005.031006 1.242140 10.055254 2.773967 -3.900269 5.811520 2.010757 -1.242196 -0.963327 -0.324474 -0.966502 1.118205 0.379211 0.352238 -9.860048 0.669215 0.000000 0.000000 0.000000 -0.597473 -6.482200 -0.992774 -11.041382 -5.297095 -9.145627 5.164894 -77.615384 44.663359 0.000000 0.000000 0.000000 -6.965813 14.922659 1.546957 13.757855 11.836695 5.102670 5.115594 -83.463515 0.963882 0.000000 0.000000 0.000000 3.064517 -26.441824 -16.060109 -3.089084 35.983453 -1.631480 -7.369643 -18.754243 2.192030 0.000000 0.000000 0.000000 1.341435 -28.226470 25.687240 -2.627219 61.338817 -17.050260 4.592755 4.341303 3.397160 0.000000 0.000000 0.000000 
-2198.224121 857.232178 1008.000000 2.594636 10.148642 2.500033 -3.684367 5.915042 2.330836 -0.972774 -0.942301 -0.406436 -0.671021 1.125158 0.398299 0.246804 -9.458816 0.854222 0.000000 0.000000 0.000000 -0.651111 -6.111917 -1.151524 -11.803752 -4.868094 -9.239801 4.469404 -77.348479 45.589038 0.000000 0.000000 0.000000 -6.907536 14.624266 1.495780 13.397400 11.031379 5.463563 4.543484 -85.665286 0.377157 0.000000 0.000000 0.000000 1.901767 -24.502882 -15.365179 -3.622542 35.118618 -1.937616 -7.704236 -18.892118 2.075117 0.000000 0.000000 0.000000 1.827257 -30.503990 26.037180 -1.853860 57.612715 -15.244897 7.498091 2.715570 3.468084 0.000000 0.000000 0.000000 
-2174.823242 859.254089 1012.408997 3.916999 10.089440 2.164963 -3.323305 5.887260 2.624391 -0.692098 -0.931443 -0.471547 -0.364909 1.117601 0.418393 0.107306 -8.890688 1.114461 0.000000 0.000000 0.000000 -0.658131 -5.276851 -1.326063 -12.529232 -4.076858 -9.450686 3.697794 -77.471309 45.753914 0.000000 0.000000 0.000000 -6.692436 14.198247 1.451418 12.828104 10.087261 5.683804 3.742893 -87.717047 -0.394736 0.000000 0.000000 0.000000 0.609862 -22.081321 -14.638647 -4.099506 33.569809 -2.170701 -7.826006 -18.398219 1.865079 0.000000 0.000000 0.000000 2.245520 -32.027104 26.087767 -0.627278 52.031517 -13.192132 9.461110 2.103718 3.285262 0.000000 0.000000 0.000000 
-2151.256592 862.379761 1017.002014 5.221134 10.004748 1.881972 -2.932673 5.752224 2.807649 -0.474459 -0.911718 -0.498536 -0.142416 1.093581 0.436591 -0.043000 -8.273477 1.415798 0.000000 0.000000 0.000000 -0.731933 -4.385674 -1.436183 -13.232644 -3.264107 -9.723153 2.949933 -77.817852 45.691014 0.000000 0.000000 0.000000 -6.424090 13.681966 1.426423 12.185028 9.143304 5.776749 2.863182 -89.350692 -1.179094 0.000000 0.000000 0.000000 -0.532006 -19.910046 -14.148713 -4.439353 32.491837 -2.252758 -7.794469 -17.326427 1.582201 0.000000 0.000000 0.000000 2.381631 -32.928150 25.889952 0.676545 45.748018 -11.382462 9.853526 1.418475 3.209739 0.000000 0.000000 0.000000 
-2127.845947 866.575745 1021.828979 6.583896 10.040041 1.701169 -2.526044 5.290513 2.865609 -0.371026 -0.767699 -0.507994 -0.070953 1.029112 0.448621 -0.205951 -7.613745 1.765597 0.000000 0.000000 0.000000 -0.938616 -3.533070 -1.426281 -13.899403 -2.527858 -10.062343 2.260528 -78.353864 45.504343 0.000000 0.000000 0.000000 -6.148225 13.092903 1.428966 11.456149 8.249701 5.650675 -178.042459 -89.503958 178.204790 0.000000 0.000000 0.000000 -1.449706 -18.264749 -14.009031 -4.640501 32.169217 -2.109874 -7.582353 -15.697310 1.245482 0.000000 0.000000 0.000000 2.040818 -33.249631 25.507483 1.762846 38.408259 -10.062820 8.641586 0.184075 2.989385 0.000000 0.000000 0.000000 
-2104.269043 871.876526 1026.839966 7.767966 10.014672 1.497207 -2.056917 4.809952 2.881753 -0.266347 -0.647460 -0.531490 -0.002557 0.939614 0.454972 -0.381147 -6.903030 2.166007 0.000000 0.000000 0.000000 -1.215530 -2.604144 -1.340981 -14.544631 -1.765067 -10.493407 1.585163 -79.149786 45.086329 0.000000 0.000000 0.000000 -5.823218 12.435174 1.445379 10.636097 7.382692 5.378224 -179.006855 -88.759662 177.595865 0.000000 0.000000 0.000000 -2.160090 -16.860854 -14.018361 -4.689479 32.334556 -1.828938 -7.178433 -13.506502 0.854048 0.000000 0.000000 0.000000 1.462337 -32.650766 25.041784 2.574014 29.577249 -9.016208 6.604720 -0.143501 2.370998 0.000000 0.000000 0.000000 
-2080.322021 878.075073 1030.629028 8.565781 9.764372 1.130015 -1.576626 4.675807 3.056479 -0.073103 -0.700092 -0.617063 0.184052 0.875993 0.467209 -0.543035 -6.221888 2.548645 0.000000 0.000000 0.000000 -1.507545 -1.681012 -1.300747 -15.235653 -1.019664 -11.025535 0.899361 -80.220408 44.669905 0.000000 0.000000 0.000000 -5.471705 11.737336 1.457281 9.892674 6.572025 5.202568 -179.963825 -88.384831 176.703203 0.000000 0.000000 0.000000 -2.618055 -15.793234 -14.003233 -4.602358 33.406848 -1.517432 -6.702375 -10.809504 0.391623 0.000000 0.000000 0.000000 0.823249 -31.411357 24.690020 2.983307 21.190767 -8.052337 4.832164 0.432381 1.671378 0.000000 0.000000 0.000000 
-2055.682129 885.180969 1033.058960 9.456230 9.498212 0.677736 -1.226989 4.398634 3.382526 0.052514 -0.702470 -0.714543 0.308493 0.843691 0.515388 -0.684190 -5.574791 2.881951 0.000000 0.000000 0.000000 -1.816008 -0.752789 -1.330252 -16.007046 -0.285597 -11.716566 0.181711 -81.603157 44.348681 0.000000 0.000000 0.000000 -5.077257 11.006602 1.457771 9.264146 5.822672 5.193580 179.101277 -88.451038 175.431270 0.000000 0.000000 0.000000 -2.968358 -15.318573 -14.065733 -4.564177 35.542968 -1.101469 -6.263301 -7.067906 -0.310971 0.000000 0.000000 0.000000 -0.103576 -30.221118 24.367601 2.913253 14.372244 -6.901839 3.515580 -0.260052 1.382339 0.000000 0.000000 0.000000 
-2030.672607 893.185608 1034.267944 10.407072 9.230476 0.195504 -0.981989 3.969177 3.748484 0.116818 -0.626303 -0.797886 0.374633 0.818053 0.587060 -0.811106 -4.943741 3.180772 0.000000 0.000000 0.000000 -2.156680 0.189750 -1.402430 -16.813299 0.430180 -12.536929 -0.558324 -83.245036 43.999128 0.000000 0.000000 0.000000 -4.664229 10.237583 1.477069 8.720540 5.122752 5.238394 178.195165 -88.887060 173.893242 0.000000 0.000000 0.000000 -3.272675 -15.331673 -14.282410 -4.547290 38.431095 -0.552450 -5.740543 -2.377820 -1.182262 0.000000 0.000000 0.000000 -1.325619 -28.983639 24.015365 2.458729 8.535620 -5.528575 2.441458 -1.839999 1.357633 0.000000 0.000000 0.000000 
-2006.054565 901.852356 1033.261963 10.944755 8.736165 -0.372661 -0.695794 3.928111 4.190252 0.268957 -0.648994 -0.912230 0.545333 0.813500 0.636572 -0.922021 -4.371867 3.442652 0.000000 0.000000 0.000000 -2.523276 1.056051 -1.559304 -17.603018 1.058537 -13.372608 -1.290679 -85.019124 43.536746 0.000000 0.000000 0.000000 -4.354043 9.429310 1.563987 8.345928 4.460438 5.299323 177.378449 -89.436956 172.110440 0.000000 0.000000 0.000000 -3.500792 -15.561251 -14.584145 -4.398050 41.884526 0.024851 -5.046140 2.207508 -1.919714 0.000000 0.000000 0.000000 -2.569403 -27.649655 23.766934 1.924409 4.430614 -4.356697 1.703446 -2.459059 1.263096 0.000000 0.000000 0.000000 
